<svg xmlns="http://www.w3.org/2000/svg" width="24" height="24" viewBox="0 0 24 24"><g stroke="#000" stroke-linejoin="round" stroke-miterlimit="10" fill="none"><path d="M20.063 8.406c0-5.031-4.75-7.906-9.063-7.906-5.359 0-9.5 4.203-9.5 9.563 0 3.043 1 5.898 4 7.678v5.76h10v-3.477c2 .011 3.018-.134 3.719-.836.898-.898.813-4.688.813-4.688s.854.032 1.498.006c.225-.01.447-.123.575-.307.129-.184.088-.406.104-.63.115-1.606-2.146-4.362-2.146-5.163zM11 14.553s5-3.601 5-6.268c0-3.076-4.091-4.05-5-.307-.909-3.743-5-2.77-5 .307 0 2.667 5 6.268 5 6.268z"/></g></svg>