<svg xmlns="http://www.w3.org/2000/svg" width="24" height="24" viewBox="0 0 24 24"><g stroke="#000" stroke-linecap="round" stroke-linejoin="round" stroke-miterlimit="10" fill="none"><path d="M14.977 10.5c-.332 0-.642-.165-.828-.439-.186-.275-.223-.624-.1-.932.299-.746.451-1.542.451-2.343v-3.786c0-1.381-1.119-2.5-2.5-2.5s-2.5 1.119-2.5 2.5v3.786c0 .802.153 1.597.451 2.343.124.308.086.657-.1.932-.186.274-.496.439-.828.439h-5.023c-.828 0-1.5.671-1.5 1.5v3.5h19v-3.5c0-.829-.672-1.5-1.5-1.5h-5.023zM20.5 23.5h-12v-4l-2 4h-3v-8h17zM18.5 18.5v5M16.5 19.5v4M14.5 21v2.5"/><circle cx="12" cy="3" r=".5"/></g></svg>