<svg xmlns="http://www.w3.org/2000/svg" width="24" height="24" viewBox="0 0 24 24"><g stroke="#000" stroke-linecap="round" stroke-linejoin="round" stroke-miterlimit="10" fill="none"><path d="M3.868 21.132c-4.491-4.491-4.491-11.773 0-16.265 4.491-4.49 11.772-4.49 16.264 0 4.491 4.491 4.491 11.773 0 16.265-2.147 2.148-5.63 2.148-7.778 0l-4.242-4.243c-.391-.391-1.024-.391-1.414 0-.391.392-.391 1.024 0 1.414.78.781.78 2.046 0 2.829-.782.782-2.049.782-2.83 0z"/><circle cx="16.242" cy="8.051" r="1.499"/><circle cx="19" cy="13" r="1"/><circle cx="16.242" cy="17.95" r="2"/><circle cx="10.232" cy="6.989" r="1.499"/></g></svg>