<svg xmlns="http://www.w3.org/2000/svg" width="24" height="24" viewBox="0 0 24 24"><g stroke="#000" stroke-linejoin="round" stroke-miterlimit="10" fill="none"><path d="M23.479 2.294c-5.95 5.552-5.98-1.522-11.479.767-5.499-2.289-5.529 4.785-11.478-.767 0 0-.797 11.157 7.172 11.157 1.91 0 3.36-.451 4.306-.874.945.423 2.396.874 4.306.874 7.969 0 7.173-11.157 7.173-11.157zM23.5 3v21"/><ellipse transform="matrix(-.176 -.984 .984 -.176 12.116 26.142)" cx="17" cy="8" rx="1.893" ry="3.029"/><ellipse transform="matrix(.176 -.984 .984 .176 -2.107 13.483)" cx="7" cy="8" rx="1.893" ry="3.029"/></g></svg>